{
  "accessors": [
    {
      "bufferView": 2,
      "componentType": 5126,
      "count": 30624,
      "max": [
        2.3208539485931396,
        2.399505138397217,
        6.262845516204834
      ],
      "min": [
        -2.558321714401245,
        -2.4288179874420166,
        2.3511219024658203
      ],
      "type": "VEC3"
    },
    {
      "bufferView": 2,
      "byteOffset": 367488,
      "componentType": 5126,
      "count": 30624,
      "max": [
        0.999956488609314,
        0.9999841451644897,
        0.9984102249145508
      ],
      "min": [
        -0.9999690055847168,
        -0.9999550580978394,
        -0.9990426898002625
      ],
      "type": "VEC3"
    },
    {
      "bufferView": 1,
      "componentType": 5126,
      "count": 30624,
      "max": [
        0.9698950052261353,
        0.997907280921936
      ],
      "min": [
        0.0020926296710968018,
        0.0020926296710968018
      ],
      "type": "VEC2"
    },
    {
      "bufferView": 0,
      "componentType": 5125,
      "count": 114048,
      "type": "SCALAR"
    },
    {
      "bufferView": 2,
      "byteOffset": 734976,
      "componentType": 5126,
      "count": 62574,
      "max": [
        2.8277201652526855,
        2.904102325439453,
        6.355494499206543
      ],
      "min": [
        -2.969053268432617,
        -3.159393548965454,
        -0.07310368865728378
      ],
      "type": "VEC3"
    },
    {
      "bufferView": 2,
      "byteOffset": 1485864,
      "componentType": 5126,
      "count": 62574,
      "max": [
        0.9999938011169434,
        0.9999966621398926,
        0.9999572038650513
      ],
      "min": [
        -0.9999798536300659,
        -0.9999877214431763,
        -0.9999438524246216
      ],
      "type": "VEC3"
    },
    {
      "bufferView": 3,
      "componentType": 5126,
      "count": 62574,
      "max": [
        0.9999213218688965,
        0.9999909400939941,
        0.9999818205833435,
        1.0
      ],
      "min": [
        -0.9999433159828186,
        -0.9999417066574097,
        -0.9999998211860657,
        -1.0
      ],
      "type": "VEC4"
    },
    {
      "bufferView": 1,
      "byteOffset": 244992,
      "componentType": 5126,
      "count": 62574,
      "max": [
        1.0,
        0.9999877214431763
      ],
      "min": [
        0.0,
        0.0
      ],
      "type": "VEC2"
    },
    {
      "bufferView": 1,
      "byteOffset": 745584,
      "componentType": 5126,
      "count": 62574,
      "max": [
        1.0,
        0.9999877214431763
      ],
      "min": [
        0.0,
        0.0
      ],
      "type": "VEC2"
    },
    {
      "bufferView": 0,
      "byteOffset": 456192,
      "componentType": 5125,
      "count": 123552,
      "type": "SCALAR"
    },
    {
      "bufferView": 2,
      "byteOffset": 2236752,
      "componentType": 5126,
      "count": 62345,
      "max": [
        3.248828887939453,
        3.2098658084869385,
        6.784505844116211
      ],
      "min": [
        -3.4414258003234863,
        -3.5508196353912354,
        0.8522346019744873
      ],
      "type": "VEC3"
    },
    {
      "bufferView": 2,
      "byteOffset": 2984892,
      "componentType": 5126,
      "count": 62345,
      "max": [
        0.9999538660049438,
        0.9999983310699463,
        1.0
      ],
      "min": [
        -0.9999445676803589,
        -0.9999130964279175,
        -0.9936397671699524
      ],
      "type": "VEC3"
    },
    {
      "bufferView": 1,
      "byteOffset": 1246176,
      "componentType": 5126,
      "count": 62345,
      "max": [
        1.039828896522522,
        1.0565069913864136
      ],
      "min": [
        -0.04640607163310051,
        -0.044655025005340576
      ],
      "type": "VEC2"
    },
    {
      "bufferView": 0,
      "byteOffset": 950400,
      "componentType": 5125,
      "count": 153753,
      "type": "SCALAR"
    }
  ],
  "asset": {
    "extras": {
      "author": "stealth86 (https://sketchfab.com/stealth86)",
      "license": "CC-BY-4.0 (http://creativecommons.org/licenses/by/4.0/)",
      "source": "https://sketchfab.com/3d-models/mango-tree-4b186052228d43d8b3fbb63213677de8",
      "title": "Mango Tree"
    },
    "generator": "Sketchfab-12.61.0",
    "version": "2.0"
  },
  "bufferViews": [
    {
      "buffer": 0,
      "byteLength": 1565412,
      "name": "floatBufferViews",
      "target": 34963
    },
    {
      "buffer": 0,
      "byteLength": 1744936,
      "byteOffset": 1565412,
      "byteStride": 8,
      "name": "floatBufferViews",
      "target": 34962
    },
    {
      "buffer": 0,
      "byteLength": 3733032,
      "byteOffset": 3310348,
      "byteStride": 12,
      "name": "floatBufferViews",
      "target": 34962
    },
    {
      "buffer": 0,
      "byteLength": 1001184,
      "byteOffset": 7043380,
      "byteStride": 16,
      "name": "floatBufferViews",
      "target": 34962
    }
  ],
  "buffers": [
    {
      "byteLength": 8044564,
      "uri": "scene.bin"
    }
  ],
  "images": [
    {
      "uri": "textures/Material.004_baseColor.png"
    },
    {
      "uri": "textures/Material.002_baseColor.png"
    },
    {
      "uri": "textures/Material.002_normal.png"
    },
    {
      "uri": "textures/Material.001_baseColor.png"
    }
  ],
  "materials": [
    {
      "doubleSided": true,
      "name": "Material.004",
      "pbrMetallicRoughness": {
        "baseColorTexture": {
          "index": 0
        },
        "metallicFactor": 0.0,
        "roughnessFactor": 0.8
      }
    },
    {
      "doubleSided": true,
      "name": "Material.002",
      "normalTexture": {
        "index": 2
      },
      "pbrMetallicRoughness": {
        "baseColorTexture": {
          "index": 1
        },
        "metallicFactor": 0.0,
        "roughnessFactor": 0.85
      }
    },
    {
      "doubleSided": true,
      "name": "Material.001",
      "pbrMetallicRoughness": {
        "baseColorTexture": {
          "index": 3
        },
        "metallicFactor": 0.0
      }
    }
  ],
  "meshes": [
    {
      "name": "tree_Material.004_0",
      "primitives": [
        {
          "attributes": {
            "NORMAL": 1,
            "POSITION": 0,
            "TEXCOORD_0": 2
          },
          "indices": 3,
          "material": 0,
          "mode": 4
        }
      ]
    },
    {
      "name": "tree_Material.002_0",
      "primitives": [
        {
          "attributes": {
            "NORMAL": 5,
            "POSITION": 4,
            "TANGENT": 6,
            "TEXCOORD_0": 7,
            "TEXCOORD_1": 8
          },
          "indices": 9,
          "material": 1,
          "mode": 4
        }
      ]
    },
    {
      "name": "leaves_Material.001_0",
      "primitives": [
        {
          "attributes": {
            "NORMAL": 11,
            "POSITION": 10,
            "TEXCOORD_0": 12
          },
          "indices": 13,
          "material": 2,
          "mode": 4
        }
      ]
    }
  ],
  "nodes": [
    {
      "children": [
        1
      ],
      "matrix": [
        1.0,
        0.0,
        0.0,
        0.0,
        0.0,
        2.220446049250313e-16,
        -1.0,
        0.0,
        0.0,
        1.0,
        2.220446049250313e-16,
        0.0,
        0.0,
        0.0,
        0.0,
        1.0
      ],
      "name": "Sketchfab_model"
    },
    {
      "children": [
        2
      ],
      "matrix": [
        0.009999999776482582,
        0.0,
        0.0,
        0.0,
        0.0,
        0.0,
        0.009999999776482582,
        0.0,
        0.0,
        -0.009999999776482582,
        0.0,
        0.0,
        0.0,
        0.0,
        0.0,
        1.0
      ],
      "name": "6bdeb36f829e4dc8b09fb123f137d89a.fbx"
    },
    {
      "children": [
        3
      ],
      "name": "RootNode"
    },
    {
      "children": [
        4,
        5,
        6
      ],
      "matrix": [
        100.0,
        0.0,
        0.0,
        0.0,
        0.0,
        -1.629206793918314e-05,
        -99.99999999999868,
        0.0,
        0.0,
        99.99999999999868,
        -1.629206793918314e-05,
        0.0,
        0.0,
        0.0,
        0.0,
        1.0
      ],
      "name": "tree"
    },
    {
      "mesh": 0,
      "name": "tree_Material.004_0"
    },
    {
      "mesh": 1,
      "name": "tree_Material.002_0"
    },
    {
      "children": [
        7
      ],
      "matrix": [
        1.0,
        0.0,
        0.0,
        0.0,
        0.0,
        1.0,
        -2.646977960169688e-23,
        0.0,
        0.0,
        2.646977960169688e-23,
        1.0,
        0.0,
        0.0,
        0.0,
        0.0,
        1.0
      ],
      "name": "leaves"
    },
    {
      "mesh": 2,
      "name": "leaves_Material.001_0"
    }
  ],
  "samplers": [
    {
      "magFilter": 9729,
      "minFilter": 9987,
      "wrapS": 10497,
      "wrapT": 10497
    }
  ],
  "scene": 0,
  "scenes": [
    {
      "name": "Sketchfab_Scene",
      "nodes": [
        0
      ]
    }
  ],
  "textures": [
    {
      "sampler": 0,
      "source": 0
    },
    {
      "sampler": 0,
      "source": 1
    },
    {
      "sampler": 0,
      "source": 2
    },
    {
      "sampler": 0,
      "source": 3
    }
  ]
}
